<?xml version="1.0" encoding="iso-8859-1"?>
<!-- Generator: Adobe Illustrator 18.0.0, SVG Export Plug-In . SVG Version: 6.00 Build 0)  -->
<!DOCTYPE svg PUBLIC "-//W3C//DTD SVG 1.1//EN" "http://www.w3.org/Graphics/SVG/1.1/DTD/svg11.dtd">
<svg version="1.1" id="Capa_1" xmlns="http://www.w3.org/2000/svg" xmlns:xlink="http://www.w3.org/1999/xlink" x="0px" y="0px"
	 viewBox="0 0 64.769 64.769" style="enable-background:new 0 0 64.769 64.769;" xml:space="preserve">
<path d="M35.469,46.419V34.031c7.993-1.458,14.073-8.467,14.073-16.874C49.541,7.697,41.845,0,32.384,0S15.228,7.697,15.228,17.157
	c0,8.407,6.08,15.416,14.072,16.874v12.388l-8.861,15.348c-0.77,1.334,0.193,3.002,1.733,3.002h20.425
	c1.541,0,2.504-1.668,1.733-3.002L35.469,46.419z M21.396,17.281c0-6.059,4.929-10.988,10.988-10.988
	c6.059,0,10.988,4.929,10.988,10.988c0,6.059-4.929,10.988-10.988,10.988C26.326,28.269,21.396,23.34,21.396,17.281z M35.591,59.308
	h-6.414c-0.484,0-0.786-0.524-0.544-0.943l3.207-5.555c0.242-0.419,0.847-0.419,1.089,0l3.207,5.555
	C36.378,58.784,36.075,59.308,35.591,59.308z"/>
<g>
</g>
<g>
</g>
<g>
</g>
<g>
</g>
<g>
</g>
<g>
</g>
<g>
</g>
<g>
</g>
<g>
</g>
<g>
</g>
<g>
</g>
<g>
</g>
<g>
</g>
<g>
</g>
<g>
</g>
</svg>
